<mxfile host="app.diagrams.net" modified="2024-04-15T07:25:40.826Z" agent="Mozilla/5.0 (Windows NT 10.0; Win64; x64) AppleWebKit/537.36 (KHTML, like Gecko) Chrome/123.0.0.0 Safari/537.36" etag="Gytw4mMOX2Gt12lPcPS4" version="24.2.3" type="device">
  <diagram name="함수종속성" id="x53VsD6eBkvYvA92Hh9e">
    <mxGraphModel dx="1147" dy="1181" grid="0" gridSize="10" guides="1" tooltips="1" connect="1" arrows="1" fold="1" page="0" pageScale="1" pageWidth="827" pageHeight="1169" math="0" shadow="0">
      <root>
        <mxCell id="0" />
        <mxCell id="1" parent="0" />
        <mxCell id="JX8ajhXnU4sqlghmmxx1-1" value="&lt;b style=&quot;font-size: 20px;&quot;&gt;&lt;font style=&quot;font-size: 20px;&quot;&gt;학생번호 -&amp;gt; 학생이름&lt;/font&gt;&lt;/b&gt;&lt;div style=&quot;font-size: 20px;&quot;&gt;&lt;b&gt;&lt;font style=&quot;font-size: 20px;&quot;&gt;학생번호 -&amp;gt; 학과&lt;/font&gt;&lt;/b&gt;&lt;/div&gt;&lt;div style=&quot;font-size: 20px;&quot;&gt;&lt;b&gt;&lt;font style=&quot;font-size: 20px;&quot;&gt;학생번호 -&amp;gt; 주소&lt;/font&gt;&lt;/b&gt;&lt;/div&gt;&lt;div style=&quot;font-size: 20px;&quot;&gt;&lt;b&gt;&lt;font style=&quot;font-size: 20px;&quot;&gt;학과 -&amp;gt; 학과사무실&lt;/font&gt;&lt;/b&gt;&lt;/div&gt;&lt;div style=&quot;font-size: 20px;&quot;&gt;&lt;b&gt;&lt;font style=&quot;font-size: 20px;&quot;&gt;강좌이름 -&amp;gt; 강의실&lt;/font&gt;&lt;/b&gt;&lt;/div&gt;&lt;div style=&quot;font-size: 20px;&quot;&gt;&lt;b&gt;&lt;font style=&quot;font-size: 20px;&quot;&gt;(학생번호,강좌이름) -&amp;gt; 성적&lt;/font&gt;&lt;/b&gt;&lt;/div&gt;&lt;div style=&quot;font-size: 20px;&quot;&gt;&lt;b&gt;&lt;font style=&quot;font-size: 20px;&quot;&gt;&lt;br&gt;&lt;/font&gt;&lt;/b&gt;&lt;/div&gt;" style="text;html=1;align=left;verticalAlign=middle;resizable=0;points=[];autosize=1;strokeColor=none;fillColor=none;fontSize=16;" vertex="1" parent="1">
          <mxGeometry x="-68" y="-294" width="266" height="180" as="geometry" />
        </mxCell>
        <mxCell id="JX8ajhXnU4sqlghmmxx1-2" value="함수종속성 다이어그램" style="text;html=1;align=center;verticalAlign=middle;resizable=0;points=[];autosize=1;strokeColor=none;fillColor=none;fontSize=20;fontStyle=1" vertex="1" parent="1">
          <mxGeometry x="-30" y="-334" width="224" height="36" as="geometry" />
        </mxCell>
        <mxCell id="JX8ajhXnU4sqlghmmxx1-21" value="" style="group" vertex="1" connectable="0" parent="1">
          <mxGeometry x="16" y="-222" width="508" height="433" as="geometry" />
        </mxCell>
        <mxCell id="JX8ajhXnU4sqlghmmxx1-19" value="" style="edgeStyle=none;curved=1;rounded=0;orthogonalLoop=1;jettySize=auto;html=1;fontSize=12;startSize=8;endSize=8;" edge="1" parent="JX8ajhXnU4sqlghmmxx1-21" source="JX8ajhXnU4sqlghmmxx1-15" target="JX8ajhXnU4sqlghmmxx1-18">
          <mxGeometry relative="1" as="geometry" />
        </mxCell>
        <mxCell id="JX8ajhXnU4sqlghmmxx1-15" value="" style="rounded=0;whiteSpace=wrap;html=1;textShadow=1;" vertex="1" parent="JX8ajhXnU4sqlghmmxx1-21">
          <mxGeometry x="2" y="169" width="147" height="168" as="geometry" />
        </mxCell>
        <mxCell id="JX8ajhXnU4sqlghmmxx1-6" value="" style="edgeStyle=none;curved=1;rounded=0;orthogonalLoop=1;jettySize=auto;html=1;fontSize=12;startSize=8;endSize=8;" edge="1" parent="JX8ajhXnU4sqlghmmxx1-21" source="JX8ajhXnU4sqlghmmxx1-3">
          <mxGeometry relative="1" as="geometry">
            <mxPoint x="227" y="30" as="targetPoint" />
            <Array as="points">
              <mxPoint x="168" y="98" />
            </Array>
          </mxGeometry>
        </mxCell>
        <mxCell id="JX8ajhXnU4sqlghmmxx1-8" value="" style="edgeStyle=none;curved=1;rounded=0;orthogonalLoop=1;jettySize=auto;html=1;fontSize=12;startSize=8;endSize=8;" edge="1" parent="JX8ajhXnU4sqlghmmxx1-21" source="JX8ajhXnU4sqlghmmxx1-3">
          <mxGeometry relative="1" as="geometry">
            <mxPoint x="229" y="121" as="targetPoint" />
          </mxGeometry>
        </mxCell>
        <mxCell id="JX8ajhXnU4sqlghmmxx1-10" value="" style="edgeStyle=none;curved=1;rounded=0;orthogonalLoop=1;jettySize=auto;html=1;fontSize=12;startSize=8;endSize=8;" edge="1" parent="JX8ajhXnU4sqlghmmxx1-21" source="JX8ajhXnU4sqlghmmxx1-3" target="JX8ajhXnU4sqlghmmxx1-9">
          <mxGeometry relative="1" as="geometry" />
        </mxCell>
        <mxCell id="JX8ajhXnU4sqlghmmxx1-3" value="학생번호" style="rounded=0;whiteSpace=wrap;html=1;" vertex="1" parent="JX8ajhXnU4sqlghmmxx1-21">
          <mxGeometry x="16" y="181" width="119" height="60" as="geometry" />
        </mxCell>
        <mxCell id="JX8ajhXnU4sqlghmmxx1-12" value="" style="edgeStyle=none;curved=1;rounded=0;orthogonalLoop=1;jettySize=auto;html=1;fontSize=12;startSize=8;endSize=8;" edge="1" parent="JX8ajhXnU4sqlghmmxx1-21" source="JX8ajhXnU4sqlghmmxx1-4" target="JX8ajhXnU4sqlghmmxx1-11">
          <mxGeometry relative="1" as="geometry" />
        </mxCell>
        <mxCell id="JX8ajhXnU4sqlghmmxx1-4" value="강좌이름" style="rounded=0;whiteSpace=wrap;html=1;" vertex="1" parent="JX8ajhXnU4sqlghmmxx1-21">
          <mxGeometry x="16" y="264" width="120" height="60" as="geometry" />
        </mxCell>
        <mxCell id="JX8ajhXnU4sqlghmmxx1-5" value="학생이름" style="rounded=0;whiteSpace=wrap;html=1;" vertex="1" parent="JX8ajhXnU4sqlghmmxx1-21">
          <mxGeometry x="229" width="119" height="60" as="geometry" />
        </mxCell>
        <mxCell id="JX8ajhXnU4sqlghmmxx1-14" value="" style="edgeStyle=none;curved=1;rounded=0;orthogonalLoop=1;jettySize=auto;html=1;fontSize=12;startSize=8;endSize=8;" edge="1" parent="JX8ajhXnU4sqlghmmxx1-21" source="JX8ajhXnU4sqlghmmxx1-7" target="JX8ajhXnU4sqlghmmxx1-13">
          <mxGeometry relative="1" as="geometry" />
        </mxCell>
        <mxCell id="JX8ajhXnU4sqlghmmxx1-7" value="학과" style="rounded=0;whiteSpace=wrap;html=1;" vertex="1" parent="JX8ajhXnU4sqlghmmxx1-21">
          <mxGeometry x="230" y="93" width="119" height="60" as="geometry" />
        </mxCell>
        <mxCell id="JX8ajhXnU4sqlghmmxx1-9" value="주소" style="rounded=0;whiteSpace=wrap;html=1;" vertex="1" parent="JX8ajhXnU4sqlghmmxx1-21">
          <mxGeometry x="229" y="177" width="119" height="60" as="geometry" />
        </mxCell>
        <mxCell id="JX8ajhXnU4sqlghmmxx1-11" value="강의실" style="rounded=0;whiteSpace=wrap;html=1;" vertex="1" parent="JX8ajhXnU4sqlghmmxx1-21">
          <mxGeometry x="229" y="261" width="120" height="60" as="geometry" />
        </mxCell>
        <mxCell id="JX8ajhXnU4sqlghmmxx1-13" value="학과사무실" style="rounded=0;whiteSpace=wrap;html=1;" vertex="1" parent="JX8ajhXnU4sqlghmmxx1-21">
          <mxGeometry x="389" y="95" width="119" height="60" as="geometry" />
        </mxCell>
        <mxCell id="JX8ajhXnU4sqlghmmxx1-18" value="성적" style="rounded=0;whiteSpace=wrap;html=1;textShadow=1;" vertex="1" parent="JX8ajhXnU4sqlghmmxx1-21">
          <mxGeometry y="373" width="147" height="60" as="geometry" />
        </mxCell>
        <mxCell id="JX8ajhXnU4sqlghmmxx1-44" value="학생 수강성적(학생번호, 학생이름,학과, 주소, 강좌이름)&lt;div&gt;학과(학과, 학과사무실)&lt;br&gt;&lt;div&gt;강의실(강좌이름, 강의실)&lt;/div&gt;&lt;/div&gt;" style="text;html=1;align=left;verticalAlign=middle;resizable=0;points=[];autosize=1;strokeColor=none;fillColor=none;fontSize=16;fontStyle=1" vertex="1" parent="1">
          <mxGeometry x="-126.5" y="924" width="416" height="70" as="geometry" />
        </mxCell>
        <mxCell id="JX8ajhXnU4sqlghmmxx1-45" value="" style="group" vertex="1" connectable="0" parent="1">
          <mxGeometry x="-148" y="375" width="513" height="435" as="geometry" />
        </mxCell>
        <mxCell id="JX8ajhXnU4sqlghmmxx1-23" value="" style="edgeStyle=none;curved=1;rounded=0;orthogonalLoop=1;jettySize=auto;html=1;fontSize=12;startSize=8;endSize=8;" edge="1" parent="JX8ajhXnU4sqlghmmxx1-45" source="JX8ajhXnU4sqlghmmxx1-24" target="JX8ajhXnU4sqlghmmxx1-37">
          <mxGeometry relative="1" as="geometry" />
        </mxCell>
        <mxCell id="JX8ajhXnU4sqlghmmxx1-24" value="" style="rounded=0;whiteSpace=wrap;html=1;textShadow=1;" vertex="1" parent="JX8ajhXnU4sqlghmmxx1-45">
          <mxGeometry x="2" y="169" width="147" height="168" as="geometry" />
        </mxCell>
        <mxCell id="JX8ajhXnU4sqlghmmxx1-25" value="" style="edgeStyle=none;curved=1;rounded=0;orthogonalLoop=1;jettySize=auto;html=1;fontSize=12;startSize=8;endSize=8;" edge="1" parent="JX8ajhXnU4sqlghmmxx1-45" source="JX8ajhXnU4sqlghmmxx1-28">
          <mxGeometry relative="1" as="geometry">
            <mxPoint x="227" y="30" as="targetPoint" />
            <Array as="points">
              <mxPoint x="168" y="98" />
            </Array>
          </mxGeometry>
        </mxCell>
        <mxCell id="JX8ajhXnU4sqlghmmxx1-26" value="" style="edgeStyle=none;curved=1;rounded=0;orthogonalLoop=1;jettySize=auto;html=1;fontSize=12;startSize=8;endSize=8;" edge="1" parent="JX8ajhXnU4sqlghmmxx1-45" source="JX8ajhXnU4sqlghmmxx1-28">
          <mxGeometry relative="1" as="geometry">
            <mxPoint x="229" y="121" as="targetPoint" />
          </mxGeometry>
        </mxCell>
        <mxCell id="JX8ajhXnU4sqlghmmxx1-27" value="" style="edgeStyle=none;curved=1;rounded=0;orthogonalLoop=1;jettySize=auto;html=1;fontSize=12;startSize=8;endSize=8;" edge="1" parent="JX8ajhXnU4sqlghmmxx1-45" source="JX8ajhXnU4sqlghmmxx1-28" target="JX8ajhXnU4sqlghmmxx1-34">
          <mxGeometry relative="1" as="geometry" />
        </mxCell>
        <mxCell id="JX8ajhXnU4sqlghmmxx1-28" value="학생번호" style="rounded=0;whiteSpace=wrap;html=1;" vertex="1" parent="JX8ajhXnU4sqlghmmxx1-45">
          <mxGeometry x="16" y="181" width="119" height="60" as="geometry" />
        </mxCell>
        <mxCell id="JX8ajhXnU4sqlghmmxx1-30" value="강좌이름" style="rounded=0;whiteSpace=wrap;html=1;" vertex="1" parent="JX8ajhXnU4sqlghmmxx1-45">
          <mxGeometry x="16" y="264" width="120" height="60" as="geometry" />
        </mxCell>
        <mxCell id="JX8ajhXnU4sqlghmmxx1-31" value="학생이름" style="rounded=0;whiteSpace=wrap;html=1;" vertex="1" parent="JX8ajhXnU4sqlghmmxx1-45">
          <mxGeometry x="229" width="119" height="60" as="geometry" />
        </mxCell>
        <mxCell id="JX8ajhXnU4sqlghmmxx1-32" value="" style="edgeStyle=none;curved=1;rounded=0;orthogonalLoop=1;jettySize=auto;html=1;fontSize=12;startSize=8;endSize=8;" edge="1" parent="JX8ajhXnU4sqlghmmxx1-45" source="JX8ajhXnU4sqlghmmxx1-33" target="JX8ajhXnU4sqlghmmxx1-36">
          <mxGeometry relative="1" as="geometry" />
        </mxCell>
        <mxCell id="JX8ajhXnU4sqlghmmxx1-33" value="학과" style="rounded=0;whiteSpace=wrap;html=1;" vertex="1" parent="JX8ajhXnU4sqlghmmxx1-45">
          <mxGeometry x="230" y="93" width="119" height="60" as="geometry" />
        </mxCell>
        <mxCell id="JX8ajhXnU4sqlghmmxx1-34" value="주소" style="rounded=0;whiteSpace=wrap;html=1;" vertex="1" parent="JX8ajhXnU4sqlghmmxx1-45">
          <mxGeometry x="229" y="177" width="119" height="60" as="geometry" />
        </mxCell>
        <mxCell id="JX8ajhXnU4sqlghmmxx1-36" value="학과사무실" style="rounded=0;whiteSpace=wrap;html=1;" vertex="1" parent="JX8ajhXnU4sqlghmmxx1-45">
          <mxGeometry x="389" y="95" width="119" height="60" as="geometry" />
        </mxCell>
        <mxCell id="JX8ajhXnU4sqlghmmxx1-37" value="성적" style="rounded=0;whiteSpace=wrap;html=1;textShadow=1;" vertex="1" parent="JX8ajhXnU4sqlghmmxx1-45">
          <mxGeometry y="373" width="147" height="60" as="geometry" />
        </mxCell>
        <mxCell id="JX8ajhXnU4sqlghmmxx1-40" value="강의실" style="rounded=0;whiteSpace=wrap;html=1;" vertex="1" parent="JX8ajhXnU4sqlghmmxx1-45">
          <mxGeometry x="393" y="375" width="120" height="60" as="geometry" />
        </mxCell>
        <mxCell id="JX8ajhXnU4sqlghmmxx1-42" value="" style="edgeStyle=none;curved=1;rounded=0;orthogonalLoop=1;jettySize=auto;html=1;fontSize=12;startSize=8;endSize=8;" edge="1" parent="JX8ajhXnU4sqlghmmxx1-45" source="JX8ajhXnU4sqlghmmxx1-41" target="JX8ajhXnU4sqlghmmxx1-40">
          <mxGeometry relative="1" as="geometry" />
        </mxCell>
        <mxCell id="JX8ajhXnU4sqlghmmxx1-41" value="강좌이름" style="rounded=0;whiteSpace=wrap;html=1;" vertex="1" parent="JX8ajhXnU4sqlghmmxx1-45">
          <mxGeometry x="222" y="375" width="120" height="60" as="geometry" />
        </mxCell>
        <mxCell id="JX8ajhXnU4sqlghmmxx1-43" value="강의실" style="text;html=1;align=left;verticalAlign=middle;resizable=0;points=[];autosize=1;strokeColor=none;fillColor=none;fontSize=16;fontStyle=1" vertex="1" parent="JX8ajhXnU4sqlghmmxx1-45">
          <mxGeometry x="222" y="324" width="66" height="31" as="geometry" />
        </mxCell>
        <mxCell id="JX8ajhXnU4sqlghmmxx1-69" value="" style="group" vertex="1" connectable="0" parent="1">
          <mxGeometry x="-126.5" y="977" width="498" height="544" as="geometry" />
        </mxCell>
        <mxCell id="JX8ajhXnU4sqlghmmxx1-48" value="" style="edgeStyle=none;curved=1;rounded=0;orthogonalLoop=1;jettySize=auto;html=1;fontSize=12;startSize=8;endSize=8;" edge="1" parent="JX8ajhXnU4sqlghmmxx1-69" source="JX8ajhXnU4sqlghmmxx1-49" target="JX8ajhXnU4sqlghmmxx1-60">
          <mxGeometry relative="1" as="geometry" />
        </mxCell>
        <mxCell id="JX8ajhXnU4sqlghmmxx1-49" value="" style="rounded=0;whiteSpace=wrap;html=1;textShadow=1;container=0;" vertex="1" parent="JX8ajhXnU4sqlghmmxx1-69">
          <mxGeometry x="2" y="169" width="147" height="168" as="geometry" />
        </mxCell>
        <mxCell id="JX8ajhXnU4sqlghmmxx1-50" value="" style="edgeStyle=none;curved=1;rounded=0;orthogonalLoop=1;jettySize=auto;html=1;fontSize=12;startSize=8;endSize=8;" edge="1" parent="JX8ajhXnU4sqlghmmxx1-69" source="JX8ajhXnU4sqlghmmxx1-53">
          <mxGeometry relative="1" as="geometry">
            <mxPoint x="227" y="30" as="targetPoint" />
            <Array as="points">
              <mxPoint x="168" y="98" />
            </Array>
          </mxGeometry>
        </mxCell>
        <mxCell id="JX8ajhXnU4sqlghmmxx1-51" value="" style="edgeStyle=none;curved=1;rounded=0;orthogonalLoop=1;jettySize=auto;html=1;fontSize=12;startSize=8;endSize=8;" edge="1" parent="JX8ajhXnU4sqlghmmxx1-69" source="JX8ajhXnU4sqlghmmxx1-53">
          <mxGeometry relative="1" as="geometry">
            <mxPoint x="229" y="121" as="targetPoint" />
          </mxGeometry>
        </mxCell>
        <mxCell id="JX8ajhXnU4sqlghmmxx1-52" value="" style="edgeStyle=none;curved=1;rounded=0;orthogonalLoop=1;jettySize=auto;html=1;fontSize=12;startSize=8;endSize=8;" edge="1" parent="JX8ajhXnU4sqlghmmxx1-69" source="JX8ajhXnU4sqlghmmxx1-53" target="JX8ajhXnU4sqlghmmxx1-58">
          <mxGeometry relative="1" as="geometry" />
        </mxCell>
        <mxCell id="JX8ajhXnU4sqlghmmxx1-53" value="학생번호" style="rounded=0;whiteSpace=wrap;html=1;container=0;" vertex="1" parent="JX8ajhXnU4sqlghmmxx1-69">
          <mxGeometry x="16" y="181" width="119" height="60" as="geometry" />
        </mxCell>
        <mxCell id="JX8ajhXnU4sqlghmmxx1-54" value="강좌이름" style="rounded=0;whiteSpace=wrap;html=1;container=0;" vertex="1" parent="JX8ajhXnU4sqlghmmxx1-69">
          <mxGeometry x="16" y="264" width="120" height="60" as="geometry" />
        </mxCell>
        <mxCell id="JX8ajhXnU4sqlghmmxx1-55" value="학생이름" style="rounded=0;whiteSpace=wrap;html=1;container=0;" vertex="1" parent="JX8ajhXnU4sqlghmmxx1-69">
          <mxGeometry x="229" width="119" height="60" as="geometry" />
        </mxCell>
        <mxCell id="JX8ajhXnU4sqlghmmxx1-57" value="학과" style="rounded=0;whiteSpace=wrap;html=1;container=0;" vertex="1" parent="JX8ajhXnU4sqlghmmxx1-69">
          <mxGeometry x="230" y="93" width="119" height="60" as="geometry" />
        </mxCell>
        <mxCell id="JX8ajhXnU4sqlghmmxx1-58" value="주소" style="rounded=0;whiteSpace=wrap;html=1;container=0;" vertex="1" parent="JX8ajhXnU4sqlghmmxx1-69">
          <mxGeometry x="229" y="177" width="119" height="60" as="geometry" />
        </mxCell>
        <mxCell id="JX8ajhXnU4sqlghmmxx1-60" value="성적" style="rounded=0;whiteSpace=wrap;html=1;textShadow=1;container=0;" vertex="1" parent="JX8ajhXnU4sqlghmmxx1-69">
          <mxGeometry y="373" width="147" height="60" as="geometry" />
        </mxCell>
        <mxCell id="JX8ajhXnU4sqlghmmxx1-61" value="학과사무실" style="rounded=0;whiteSpace=wrap;html=1;container=0;" vertex="1" parent="JX8ajhXnU4sqlghmmxx1-69">
          <mxGeometry x="378" y="484" width="120" height="60" as="geometry" />
        </mxCell>
        <mxCell id="JX8ajhXnU4sqlghmmxx1-62" value="" style="edgeStyle=none;curved=1;rounded=0;orthogonalLoop=1;jettySize=auto;html=1;fontSize=12;startSize=8;endSize=8;" edge="1" parent="JX8ajhXnU4sqlghmmxx1-69" source="JX8ajhXnU4sqlghmmxx1-63" target="JX8ajhXnU4sqlghmmxx1-61">
          <mxGeometry relative="1" as="geometry" />
        </mxCell>
        <mxCell id="JX8ajhXnU4sqlghmmxx1-63" value="학과" style="rounded=0;whiteSpace=wrap;html=1;container=0;" vertex="1" parent="JX8ajhXnU4sqlghmmxx1-69">
          <mxGeometry x="207" y="484" width="120" height="60" as="geometry" />
        </mxCell>
        <mxCell id="JX8ajhXnU4sqlghmmxx1-64" value="학과" style="text;html=1;align=left;verticalAlign=middle;resizable=0;points=[];autosize=1;strokeColor=none;fillColor=none;fontSize=16;fontStyle=1;container=0;" vertex="1" parent="JX8ajhXnU4sqlghmmxx1-69">
          <mxGeometry x="207" y="433" width="50" height="31" as="geometry" />
        </mxCell>
        <mxCell id="JX8ajhXnU4sqlghmmxx1-65" value="강의실" style="rounded=0;whiteSpace=wrap;html=1;container=0;" vertex="1" parent="JX8ajhXnU4sqlghmmxx1-69">
          <mxGeometry x="374" y="344" width="120" height="60" as="geometry" />
        </mxCell>
        <mxCell id="JX8ajhXnU4sqlghmmxx1-66" value="" style="edgeStyle=none;curved=1;rounded=0;orthogonalLoop=1;jettySize=auto;html=1;fontSize=12;startSize=8;endSize=8;" edge="1" parent="JX8ajhXnU4sqlghmmxx1-69" source="JX8ajhXnU4sqlghmmxx1-67" target="JX8ajhXnU4sqlghmmxx1-65">
          <mxGeometry relative="1" as="geometry" />
        </mxCell>
        <mxCell id="JX8ajhXnU4sqlghmmxx1-67" value="강좌이름" style="rounded=0;whiteSpace=wrap;html=1;container=0;" vertex="1" parent="JX8ajhXnU4sqlghmmxx1-69">
          <mxGeometry x="203" y="344" width="120" height="60" as="geometry" />
        </mxCell>
        <mxCell id="JX8ajhXnU4sqlghmmxx1-68" value="강의실" style="text;html=1;align=left;verticalAlign=middle;resizable=0;points=[];autosize=1;strokeColor=none;fillColor=none;fontSize=16;fontStyle=1;container=0;" vertex="1" parent="JX8ajhXnU4sqlghmmxx1-69">
          <mxGeometry x="203" y="293" width="66" height="31" as="geometry" />
        </mxCell>
        <mxCell id="JX8ajhXnU4sqlghmmxx1-70" value="학생 수강성적(학생번호, 학생이름,학과, 주소)&lt;div&gt;학생성적(학생이름, 강좌이름, 성적)&lt;/div&gt;&lt;div&gt;학과(학과, 학과사무실)&lt;br&gt;&lt;div&gt;강의실(강좌이름, 강의실)&lt;/div&gt;&lt;/div&gt;" style="text;html=1;align=left;verticalAlign=middle;resizable=0;points=[];autosize=1;strokeColor=none;fillColor=none;fontSize=16;fontStyle=1" vertex="1" parent="1">
          <mxGeometry x="-115" y="1626" width="343" height="89" as="geometry" />
        </mxCell>
        <mxCell id="JX8ajhXnU4sqlghmmxx1-98" value="" style="group" vertex="1" connectable="0" parent="1">
          <mxGeometry x="-158" y="1674" width="677" height="551" as="geometry" />
        </mxCell>
        <mxCell id="JX8ajhXnU4sqlghmmxx1-74" value="" style="edgeStyle=none;curved=1;rounded=0;orthogonalLoop=1;jettySize=auto;html=1;fontSize=12;startSize=8;endSize=8;" edge="1" parent="JX8ajhXnU4sqlghmmxx1-98" source="JX8ajhXnU4sqlghmmxx1-77">
          <mxGeometry relative="1" as="geometry">
            <mxPoint x="406" y="31" as="targetPoint" />
            <Array as="points">
              <mxPoint x="347" y="99" />
            </Array>
          </mxGeometry>
        </mxCell>
        <mxCell id="JX8ajhXnU4sqlghmmxx1-75" value="" style="edgeStyle=none;curved=1;rounded=0;orthogonalLoop=1;jettySize=auto;html=1;fontSize=12;startSize=8;endSize=8;" edge="1" parent="JX8ajhXnU4sqlghmmxx1-98" source="JX8ajhXnU4sqlghmmxx1-77">
          <mxGeometry relative="1" as="geometry">
            <mxPoint x="408" y="122" as="targetPoint" />
          </mxGeometry>
        </mxCell>
        <mxCell id="JX8ajhXnU4sqlghmmxx1-76" value="" style="edgeStyle=none;curved=1;rounded=0;orthogonalLoop=1;jettySize=auto;html=1;fontSize=12;startSize=8;endSize=8;" edge="1" parent="JX8ajhXnU4sqlghmmxx1-98" source="JX8ajhXnU4sqlghmmxx1-77" target="JX8ajhXnU4sqlghmmxx1-81">
          <mxGeometry relative="1" as="geometry" />
        </mxCell>
        <mxCell id="JX8ajhXnU4sqlghmmxx1-77" value="학생번호" style="rounded=0;whiteSpace=wrap;html=1;container=0;" vertex="1" parent="JX8ajhXnU4sqlghmmxx1-98">
          <mxGeometry x="195" y="182" width="119" height="60" as="geometry" />
        </mxCell>
        <mxCell id="JX8ajhXnU4sqlghmmxx1-79" value="학생이름" style="rounded=0;whiteSpace=wrap;html=1;container=0;" vertex="1" parent="JX8ajhXnU4sqlghmmxx1-98">
          <mxGeometry x="406" width="119" height="60" as="geometry" />
        </mxCell>
        <mxCell id="JX8ajhXnU4sqlghmmxx1-80" value="학과" style="rounded=0;whiteSpace=wrap;html=1;container=0;" vertex="1" parent="JX8ajhXnU4sqlghmmxx1-98">
          <mxGeometry x="409" y="94" width="119" height="60" as="geometry" />
        </mxCell>
        <mxCell id="JX8ajhXnU4sqlghmmxx1-81" value="주소" style="rounded=0;whiteSpace=wrap;html=1;container=0;" vertex="1" parent="JX8ajhXnU4sqlghmmxx1-98">
          <mxGeometry x="408" y="178" width="119" height="60" as="geometry" />
        </mxCell>
        <mxCell id="JX8ajhXnU4sqlghmmxx1-82" value="성적" style="rounded=0;whiteSpace=wrap;html=1;textShadow=1;container=0;" vertex="1" parent="JX8ajhXnU4sqlghmmxx1-98">
          <mxGeometry x="181" y="431" width="147" height="60" as="geometry" />
        </mxCell>
        <mxCell id="JX8ajhXnU4sqlghmmxx1-83" value="학과사무실" style="rounded=0;whiteSpace=wrap;html=1;container=0;" vertex="1" parent="JX8ajhXnU4sqlghmmxx1-98">
          <mxGeometry x="557" y="485" width="120" height="60" as="geometry" />
        </mxCell>
        <mxCell id="JX8ajhXnU4sqlghmmxx1-84" value="" style="edgeStyle=none;curved=1;rounded=0;orthogonalLoop=1;jettySize=auto;html=1;fontSize=12;startSize=8;endSize=8;" edge="1" parent="JX8ajhXnU4sqlghmmxx1-98" source="JX8ajhXnU4sqlghmmxx1-85" target="JX8ajhXnU4sqlghmmxx1-83">
          <mxGeometry relative="1" as="geometry" />
        </mxCell>
        <mxCell id="JX8ajhXnU4sqlghmmxx1-85" value="학과" style="rounded=0;whiteSpace=wrap;html=1;container=0;" vertex="1" parent="JX8ajhXnU4sqlghmmxx1-98">
          <mxGeometry x="386" y="485" width="120" height="60" as="geometry" />
        </mxCell>
        <mxCell id="JX8ajhXnU4sqlghmmxx1-86" value="학과" style="text;html=1;align=left;verticalAlign=middle;resizable=0;points=[];autosize=1;strokeColor=none;fillColor=none;fontSize=16;fontStyle=1;container=0;" vertex="1" parent="JX8ajhXnU4sqlghmmxx1-98">
          <mxGeometry x="386" y="434" width="50" height="31" as="geometry" />
        </mxCell>
        <mxCell id="JX8ajhXnU4sqlghmmxx1-87" value="강의실" style="rounded=0;whiteSpace=wrap;html=1;container=0;" vertex="1" parent="JX8ajhXnU4sqlghmmxx1-98">
          <mxGeometry x="553" y="345" width="120" height="60" as="geometry" />
        </mxCell>
        <mxCell id="JX8ajhXnU4sqlghmmxx1-88" value="" style="edgeStyle=none;curved=1;rounded=0;orthogonalLoop=1;jettySize=auto;html=1;fontSize=12;startSize=8;endSize=8;" edge="1" parent="JX8ajhXnU4sqlghmmxx1-98" source="JX8ajhXnU4sqlghmmxx1-89" target="JX8ajhXnU4sqlghmmxx1-87">
          <mxGeometry relative="1" as="geometry" />
        </mxCell>
        <mxCell id="JX8ajhXnU4sqlghmmxx1-89" value="강좌이름" style="rounded=0;whiteSpace=wrap;html=1;container=0;" vertex="1" parent="JX8ajhXnU4sqlghmmxx1-98">
          <mxGeometry x="382" y="345" width="120" height="60" as="geometry" />
        </mxCell>
        <mxCell id="JX8ajhXnU4sqlghmmxx1-90" value="강의실" style="text;html=1;align=left;verticalAlign=middle;resizable=0;points=[];autosize=1;strokeColor=none;fillColor=none;fontSize=16;fontStyle=1;container=0;" vertex="1" parent="JX8ajhXnU4sqlghmmxx1-98">
          <mxGeometry x="382" y="294" width="66" height="31" as="geometry" />
        </mxCell>
        <mxCell id="JX8ajhXnU4sqlghmmxx1-95" value="" style="edgeStyle=none;curved=1;rounded=0;orthogonalLoop=1;jettySize=auto;html=1;fontSize=12;startSize=8;endSize=8;" edge="1" parent="JX8ajhXnU4sqlghmmxx1-98" source="JX8ajhXnU4sqlghmmxx1-92" target="JX8ajhXnU4sqlghmmxx1-82">
          <mxGeometry relative="1" as="geometry" />
        </mxCell>
        <mxCell id="JX8ajhXnU4sqlghmmxx1-92" value="" style="rounded=0;whiteSpace=wrap;html=1;textShadow=1;container=0;" vertex="1" parent="JX8ajhXnU4sqlghmmxx1-98">
          <mxGeometry y="382" width="147" height="168" as="geometry" />
        </mxCell>
        <mxCell id="JX8ajhXnU4sqlghmmxx1-93" value="학생번호" style="rounded=0;whiteSpace=wrap;html=1;container=0;" vertex="1" parent="JX8ajhXnU4sqlghmmxx1-98">
          <mxGeometry x="14" y="394" width="119" height="60" as="geometry" />
        </mxCell>
        <mxCell id="JX8ajhXnU4sqlghmmxx1-94" value="강좌이름" style="rounded=0;whiteSpace=wrap;html=1;container=0;" vertex="1" parent="JX8ajhXnU4sqlghmmxx1-98">
          <mxGeometry x="14" y="477" width="120" height="60" as="geometry" />
        </mxCell>
        <mxCell id="JX8ajhXnU4sqlghmmxx1-96" value="&lt;b&gt;학생성적&lt;/b&gt;" style="text;html=1;align=center;verticalAlign=middle;resizable=0;points=[];autosize=1;strokeColor=none;fillColor=none;fontSize=16;" vertex="1" parent="JX8ajhXnU4sqlghmmxx1-98">
          <mxGeometry x="34.5" y="324.5" width="82" height="31" as="geometry" />
        </mxCell>
        <mxCell id="JX8ajhXnU4sqlghmmxx1-97" value="&lt;b&gt;학생&lt;/b&gt;" style="text;html=1;align=center;verticalAlign=middle;resizable=0;points=[];autosize=1;strokeColor=none;fillColor=none;fontSize=16;" vertex="1" parent="JX8ajhXnU4sqlghmmxx1-98">
          <mxGeometry x="207.5" y="113.5" width="50" height="31" as="geometry" />
        </mxCell>
        <mxCell id="JX8ajhXnU4sqlghmmxx1-100" value="" style="group" vertex="1" connectable="0" parent="1">
          <mxGeometry x="-130" y="293" width="505" height="93" as="geometry" />
        </mxCell>
        <mxCell id="JX8ajhXnU4sqlghmmxx1-20" value="부분 릴레이션 분해" style="text;html=1;align=center;verticalAlign=middle;resizable=0;points=[];autosize=1;strokeColor=none;fillColor=none;fontSize=20;fontStyle=1" vertex="1" parent="JX8ajhXnU4sqlghmmxx1-100">
          <mxGeometry x="118" width="189" height="36" as="geometry" />
        </mxCell>
        <mxCell id="JX8ajhXnU4sqlghmmxx1-39" value="학생 수강성적(학생번호, 학생이름,학과, 주소, 강좌이름, 학과사무실)&lt;div&gt;강의실(강좌이름, 강의실)&lt;/div&gt;" style="text;html=1;align=left;verticalAlign=middle;resizable=0;points=[];autosize=1;strokeColor=none;fillColor=none;fontSize=16;fontStyle=1" vertex="1" parent="JX8ajhXnU4sqlghmmxx1-100">
          <mxGeometry y="43" width="505" height="50" as="geometry" />
        </mxCell>
      </root>
    </mxGraphModel>
  </diagram>
</mxfile>
